<svg width="25" height="24" viewBox="0 0 25 24" fill="none" xmlns="http://www.w3.org/2000/svg">
<path d="M3.91138 12L5.91138 10M5.91138 10L12.9114 3L19.9114 10M5.91138 10V20C5.91138 20.2652 6.01673 20.5196 6.20427 20.7071C6.39181 20.8946 6.64616 21 6.91138 21H9.91138M19.9114 10L21.9114 12M19.9114 10V20C19.9114 20.2652 19.806 20.5196 19.6185 20.7071C19.4309 20.8946 19.1766 21 18.9114 21H15.9114M9.91138 21C10.1766 21 10.4309 20.8946 10.6185 20.7071C10.806 20.5196 10.9114 20.2652 10.9114 20V16C10.9114 15.7348 11.0167 15.4804 11.2043 15.2929C11.3918 15.1054 11.6462 15 11.9114 15H13.9114C14.1766 15 14.4309 15.1054 14.6185 15.2929C14.806 15.4804 14.9114 15.7348 14.9114 16V20C14.9114 20.2652 15.0167 20.5196 15.2043 20.7071C15.3918 20.8946 15.6462 21 15.9114 21M9.91138 21H15.9114" stroke="white" stroke-width="2" stroke-linecap="round" stroke-linejoin="round"/>
</svg>
