<svg width="512" height="512" viewBox="0 0 512 512" fill="none" xmlns="http://www.w3.org/2000/svg">
<rect width="512" height="512" fill="#28468F"/>
<path d="M105.829 306.643C105.829 324.344 112.861 341.32 125.377 353.837C137.894 366.354 154.87 373.386 172.572 373.386H322.743C333.769 373.386 344.686 371.2 354.862 366.955C365.038 362.71 374.272 356.49 382.03 348.654C389.787 340.819 395.915 331.523 400.058 321.305C404.201 311.087 406.277 300.148 406.167 289.123C406.057 278.097 403.762 267.203 399.416 257.069C395.069 246.936 388.757 237.765 380.844 230.086C372.931 222.407 363.575 216.373 353.316 212.332C343.057 208.292 332.098 206.325 321.074 206.545C318.962 195.65 314.697 185.286 308.531 176.059C302.364 166.832 294.42 158.927 285.162 152.807C275.903 146.688 265.518 142.476 254.612 140.418C243.707 138.361 232.5 138.499 221.649 140.825C210.797 143.15 200.518 147.617 191.414 153.963C182.309 160.309 174.562 168.407 168.625 177.783C162.687 187.159 158.68 197.626 156.836 208.569C154.993 219.513 155.35 230.715 157.888 241.518C143.108 244.855 129.903 253.12 120.442 264.955C110.981 276.79 105.828 291.491 105.829 306.643V306.643Z" stroke="white" stroke-width="32" stroke-linecap="round" stroke-linejoin="round"/>
</svg>
